<svg height="1486" width="720" xmlns="http://www.w3.org/2000/svg">
<rect height="1486" fill="#555" width="720"></rect>
<text fill="#7f7" font-family="Courier New" font-size="12" xml:space="preserve">
<tspan x="10" y="26">9 megabytes installed</tspan>
<tspan x="10" y="42"></tspan>
<tspan x="10" y="58">node_modules</tspan>
<tspan x="10" y="74">└─┬ clocker@1.11.3 </tspan>
<tspan x="10" y="90">  ├── editor@0.1.0 </tspan>
<tspan x="10" y="106">  ├─┬ json-stable-stringify@1.0.1 </tspan>
<tspan x="10" y="122">  │ └── jsonify@0.0.0 </tspan>
<tspan x="10" y="138">  ├─┬ level@1.6.0 </tspan>
<tspan x="10" y="154">  │ ├─┬ level-packager@1.2.1 </tspan>
<tspan x="10" y="170">  │ │ └─┬ levelup@1.3.5 </tspan>
<tspan x="10" y="186">  │ │   ├─┬ deferred-leveldown@1.2.1 </tspan>
<tspan x="10" y="202">  │ │   │ └── abstract-leveldown@2.4.1 </tspan>
<tspan x="10" y="218">  │ │   ├── level-codec@6.1.0 </tspan>
<tspan x="10" y="234">  │ │   ├─┬ level-errors@1.0.4 </tspan>
<tspan x="10" y="250">  │ │   │ └─┬ errno@0.1.4 </tspan>
<tspan x="10" y="266">  │ │   │   └── prr@0.0.0 </tspan>
<tspan x="10" y="282">  │ │   ├─┬ level-iterator-stream@1.3.1 </tspan>
<tspan x="10" y="298">  │ │   │ ├── inherits@2.0.3 </tspan>
<tspan x="10" y="314">  │ │   │ └─┬ readable-stream@1.1.14 </tspan>
<tspan x="10" y="330">  │ │   │   ├── core-util-is@1.0.2 </tspan>
<tspan x="10" y="346">  │ │   │   ├── isarray@0.0.1 </tspan>
<tspan x="10" y="362">  │ │   │   └── string_decoder@0.10.31 </tspan>
<tspan x="10" y="378">  │ │   ├── prr@1.0.1 </tspan>
<tspan x="10" y="394">  │ │   ├── semver@5.1.1 </tspan>
<tspan x="10" y="410">  │ │   └── xtend@4.0.1 </tspan>
<tspan x="10" y="426">  │ └─┬ leveldown@1.6.0 </tspan>
<tspan x="10" y="442">  │   ├── abstract-leveldown@2.6.1 </tspan>
<tspan x="10" y="458">  │   ├── bindings@1.2.1 </tspan>
<tspan x="10" y="474">  │   ├── fast-future@1.0.2 </tspan>
<tspan x="10" y="490">  │   ├── nan@2.5.1 </tspan>
<tspan x="10" y="506">  │   └─┬ prebuild-install@2.1.2 </tspan>
<tspan x="10" y="522">  │     ├── expand-template@1.0.3 </tspan>
<tspan x="10" y="538">  │     ├── github-from-package@0.0.0 </tspan>
<tspan x="10" y="554">  │     ├── minimist@1.2.0 </tspan>
<tspan x="10" y="570">  │     ├─┬ mkdirp@0.5.1 </tspan>
<tspan x="10" y="586">  │     │ └── minimist@0.0.8 </tspan>
<tspan x="10" y="602">  │     ├── node-abi@2.0.0 </tspan>
<tspan x="10" y="618">  │     ├── noop-logger@0.1.1 </tspan>
<tspan x="10" y="634">  │     ├─┬ npmlog@4.0.2 </tspan>
<tspan x="10" y="650">  │     │ ├─┬ are-we-there-yet@1.1.4 </tspan>
<tspan x="10" y="666">  │     │ │ ├── delegates@1.0.0 </tspan>
<tspan x="10" y="682">  │     │ │ └─┬ readable-stream@2.2.9 </tspan>
<tspan x="10" y="698">  │     │ │   ├── buffer-shims@1.0.0 </tspan>
<tspan x="10" y="714">  │     │ │   ├── isarray@1.0.0 </tspan>
<tspan x="10" y="730">  │     │ │   ├── process-nextick-args@1.0.7 </tspan>
<tspan x="10" y="746">  │     │ │   ├── string_decoder@1.0.0 </tspan>
<tspan x="10" y="762">  │     │ │   └── util-deprecate@1.0.2 </tspan>
<tspan x="10" y="778">  │     │ ├── console-control-strings@1.1.0 </tspan>
<tspan x="10" y="794">  │     │ ├─┬ gauge@2.7.4 </tspan>
<tspan x="10" y="810">  │     │ │ ├── aproba@1.1.1 </tspan>
<tspan x="10" y="826">  │     │ │ ├── has-unicode@2.0.1 </tspan>
<tspan x="10" y="842">  │     │ │ ├── object-assign@4.1.1 </tspan>
<tspan x="10" y="858">  │     │ │ ├── signal-exit@3.0.2 </tspan>
<tspan x="10" y="874">  │     │ │ ├─┬ string-width@1.0.2 </tspan>
<tspan x="10" y="890">  │     │ │ │ ├── code-point-at@1.1.0 </tspan>
<tspan x="10" y="906">  │     │ │ │ └─┬ is-fullwidth-code-point@1.0.0 </tspan>
<tspan x="10" y="922">  │     │ │ │   └── number-is-nan@1.0.1 </tspan>
<tspan x="10" y="938">  │     │ │ ├─┬ strip-ansi@3.0.1 </tspan>
<tspan x="10" y="954">  │     │ │ │ └── ansi-regex@2.1.1 </tspan>
<tspan x="10" y="970">  │     │ │ └── wide-align@1.1.0 </tspan>
<tspan x="10" y="986">  │     │ └── set-blocking@2.0.0 </tspan>
<tspan x="10" y="1002">  │     ├── os-homedir@1.0.2 </tspan>
<tspan x="10" y="1018">  │     ├─┬ pump@1.0.2 </tspan>
<tspan x="10" y="1034">  │     │ ├── end-of-stream@1.4.0 </tspan>
<tspan x="10" y="1050">  │     │ └─┬ once@1.4.0 </tspan>
<tspan x="10" y="1066">  │     │   └── wrappy@1.0.2 </tspan>
<tspan x="10" y="1082">  │     ├─┬ rc@1.2.1 </tspan>
<tspan x="10" y="1098">  │     │ ├── deep-extend@0.4.1 </tspan>
<tspan x="10" y="1114">  │     │ ├── ini@1.3.4 </tspan>
<tspan x="10" y="1130">  │     │ ├── minimist@1.2.0 </tspan>
<tspan x="10" y="1146">  │     │ └── strip-json-comments@2.0.1 </tspan>
<tspan x="10" y="1162">  │     ├─┬ simple-get@1.4.3 </tspan>
<tspan x="10" y="1178">  │     │ └── unzip-response@1.0.2 </tspan>
<tspan x="10" y="1194">  │     ├─┬ tar-fs@1.15.2 </tspan>
<tspan x="10" y="1210">  │     │ ├── chownr@1.0.1 </tspan>
<tspan x="10" y="1226">  │     │ ├─┬ mkdirp@0.5.1 </tspan>
<tspan x="10" y="1242">  │     │ │ └── minimist@0.0.8 </tspan>
<tspan x="10" y="1258">  │     │ └─┬ tar-stream@1.5.2 </tspan>
<tspan x="10" y="1274">  │     │   ├─┬ bl@1.2.0 </tspan>
<tspan x="10" y="1290">  │     │   │ └─┬ readable-stream@2.2.9 </tspan>
<tspan x="10" y="1306">  │     │   │   ├── isarray@1.0.0 </tspan>
<tspan x="10" y="1322">  │     │   │   └── string_decoder@1.0.0 </tspan>
<tspan x="10" y="1338">  │     │   └─┬ readable-stream@2.2.9 </tspan>
<tspan x="10" y="1354">  │     │     ├── isarray@1.0.0 </tspan>
<tspan x="10" y="1370">  │     │     └── string_decoder@1.0.0 </tspan>
<tspan x="10" y="1386">  │     └── tunnel-agent@0.4.3 </tspan>
<tspan x="10" y="1402">  ├── minimist@0.0.10 </tspan>
<tspan x="10" y="1418">  ├── mkdirp@0.3.5 </tspan>
<tspan x="10" y="1434">  ├── parse-messy-time@1.2.4 </tspan>
<tspan x="10" y="1450">  ├── strftime@0.6.2 </tspan>
<tspan x="10" y="1466">  └── through@2.3.8</tspan>
</text>
</svg>
